<svg width="28" height="28" viewBox="0 0 28 28" fill="none" xmlns="http://www.w3.org/2000/svg">
<path d="M18.4151 11.064C18.4513 12.2248 18.2226 13.3157 17.791 14.2992L23.2545 19.7626C24.0466 20.5653 24.4993 21.6469 24.4993 22.7785V23.3081C24.4993 24.1399 23.825 24.8154 22.992 24.8154H20.2445C19.4115 24.8154 18.7371 24.1399 18.7371 23.3081C18.7371 22.4914 18.0873 21.8241 17.2706 21.8019L17.1773 21.7996C16.349 21.7763 15.6956 21.0915 15.712 20.2632L15.733 19.1664L14.4566 17.8902C13.0181 18.6614 11.2809 18.9763 9.46792 18.6181C6.49992 18.0336 4.1246 15.6046 3.6136 12.6238C2.7876 7.82061 6.58042 3.65793 11.2751 3.85277C15.1158 4.01143 18.2938 7.2233 18.4151 11.064Z" stroke="#616161" stroke-width="1.5" stroke-linecap="round" stroke-linejoin="round"/>
<path fill-rule="evenodd" clip-rule="evenodd" d="M12.75 11.3076C12.75 10.3183 11.9485 9.51562 10.958 9.51562C9.96746 9.51562 9.16479 10.3183 9.16479 11.3076C9.16479 12.2982 9.96746 13.1008 10.958 13.1008C11.9485 13.1008 12.75 12.2982 12.75 11.3076Z" stroke="#616161" stroke-width="1.5" stroke-linecap="round" stroke-linejoin="round"/>
</svg>
